<svg xmlns="http://www.w3.org/2000/svg" xmlns:xlink="http://www.w3.org/1999/xlink" width="500" zoomAndPan="magnify" viewBox="0 0 375 374.999991" height="500" preserveAspectRatio="xMidYMid meet" version="1.0"><defs><g/><clipPath id="bb170e7f7a"><path d="M 0.640625 4 L 8 4 L 8 12 L 0.640625 12 Z M 0.640625 4 " clip-rule="nonzero"/></clipPath><clipPath id="0dea4054b1"><rect x="0" width="76" y="0" height="15"/></clipPath><clipPath id="51feba4ee2"><path d="M 31.832031 25.765625 L 343.082031 25.765625 L 343.082031 349.015625 L 31.832031 349.015625 Z M 31.832031 25.765625 " clip-rule="nonzero"/></clipPath><clipPath id="3e0171bc53"><path d="M 302.332031 122.308594 L 154.324219 36.855469 C 99.882812 5.425781 31.832031 44.710938 31.832031 107.574219 L 31.832031 278.480469 L 110.121094 218.164062 L 110.121094 167.894531 C 110.121094 141.5625 131.539062 120.144531 157.867188 120.144531 C 166.167969 120.144531 174.40625 122.367188 181.6875 126.570312 L 225.226562 151.707031 C 240.164062 160.332031 249.082031 175.78125 249.082031 193.027344 C 249.082031 210.277344 240.164062 225.722656 225.226562 234.347656 L 181.6875 259.484375 L 154.324219 349.203125 L 302.332031 263.75 C 356.773438 232.320312 356.773438 153.742188 302.332031 122.308594 Z M 302.332031 122.308594 " clip-rule="nonzero"/></clipPath><clipPath id="52f0657a4f"><path d="M 302.332031 122.308594 L 154.324219 36.855469 C 99.882812 5.425781 31.832031 44.710938 31.832031 107.574219 L 31.832031 278.480469 L 110.121094 218.164062 L 110.121094 167.894531 C 110.121094 141.5625 131.539062 120.144531 157.867188 120.144531 C 166.167969 120.144531 174.40625 122.367188 181.6875 126.570312 L 225.226562 151.707031 C 240.164062 160.332031 249.082031 175.78125 249.082031 193.027344 C 249.082031 210.277344 240.164062 225.722656 225.226562 234.347656 L 181.6875 259.484375 L 154.324219 349.203125 L 302.332031 263.75 C 356.773438 232.320312 356.773438 153.742188 302.332031 122.308594 " clip-rule="nonzero"/></clipPath><radialGradient gradientTransform="matrix(1, 0, 0, 1, 169.80013, 183.004946)" gradientUnits="userSpaceOnUse" r="222.391226" cx="0" id="f5fb94e5b0" cy="0" fx="0" fy="0"><stop stop-opacity="1" stop-color="rgb(47.257996%, 48.439026%, 50.19989%)" offset="0"/><stop stop-opacity="1" stop-color="rgb(47.001648%, 48.179626%, 50.134277%)" offset="0.015625"/><stop stop-opacity="1" stop-color="rgb(46.864319%, 48.039246%, 49.998474%)" offset="0.0195312"/><stop stop-opacity="1" stop-color="rgb(46.731567%, 47.898865%, 49.858093%)" offset="0.0234375"/><stop stop-opacity="1" stop-color="rgb(46.66748%, 47.637939%, 49.597168%)" offset="0.0273438"/><stop stop-opacity="1" stop-color="rgb(46.472168%, 47.44873%, 49.217224%)" offset="0.0390625"/><stop stop-opacity="1" stop-color="rgb(46.086121%, 47.261047%, 48.835754%)" offset="0.0507812"/><stop stop-opacity="1" stop-color="rgb(45.826721%, 47.006226%, 48.576355%)" offset="0.0625"/><stop stop-opacity="1" stop-color="rgb(45.689392%, 46.868896%, 48.439026%)" offset="0.0664062"/><stop stop-opacity="1" stop-color="rgb(45.555115%, 46.730042%, 48.304749%)" offset="0.0703125"/><stop stop-opacity="1" stop-color="rgb(45.489502%, 46.466064%, 48.239136%)" offset="0.0742188"/><stop stop-opacity="1" stop-color="rgb(45.300293%, 46.080017%, 48.043823%)" offset="0.0859375"/><stop stop-opacity="1" stop-color="rgb(45.040894%, 45.822144%, 47.781372%)" offset="0.0976562"/><stop stop-opacity="1" stop-color="rgb(44.903564%, 45.683289%, 47.642517%)" offset="0.101562"/><stop stop-opacity="1" stop-color="rgb(44.764709%, 45.552063%, 47.505188%)" offset="0.105469"/><stop stop-opacity="1" stop-color="rgb(44.500732%, 45.487976%, 47.245789%)" offset="0.109375"/><stop stop-opacity="1" stop-color="rgb(44.116211%, 45.295715%, 46.865845%)" offset="0.121094"/><stop stop-opacity="1" stop-color="rgb(43.922424%, 44.914246%, 46.672058%)" offset="0.132812"/><stop stop-opacity="1" stop-color="rgb(43.858337%, 44.654846%, 46.606445%)" offset="0.144531"/><stop stop-opacity="1" stop-color="rgb(43.727112%, 44.512939%, 46.472168%)" offset="0.148438"/><stop stop-opacity="1" stop-color="rgb(43.592834%, 44.37561%, 46.331787%)" offset="0.152344"/><stop stop-opacity="1" stop-color="rgb(43.333435%, 44.114685%, 46.069336%)" offset="0.15625"/><stop stop-opacity="1" stop-color="rgb(42.964172%, 43.919373%, 45.703125%)" offset="0.179688"/><stop stop-opacity="1" stop-color="rgb(42.76886%, 43.748474%, 45.509338%)" offset="0.183594"/><stop stop-opacity="1" stop-color="rgb(42.686462%, 43.492126%, 45.428467%)" offset="0.1875"/><stop stop-opacity="1" stop-color="rgb(42.553711%, 43.338013%, 45.298767%)" offset="0.191406"/><stop stop-opacity="1" stop-color="rgb(42.411804%, 43.200684%, 45.161438%)" offset="0.195312"/><stop stop-opacity="1" stop-color="rgb(42.150879%, 42.941284%, 44.902039%)" offset="0.199219"/><stop stop-opacity="1" stop-color="rgb(41.770935%, 42.749023%, 44.515991%)" offset="0.210938"/><stop stop-opacity="1" stop-color="rgb(41.574097%, 42.570496%, 44.314575%)" offset="0.222656"/><stop stop-opacity="1" stop-color="rgb(41.569519%, 42.347717%, 44.287109%)" offset="0.226562"/><stop stop-opacity="1" stop-color="rgb(41.563416%, 42.131042%, 44.085693%)" offset="0.230469"/><stop stop-opacity="1" stop-color="rgb(41.366577%, 41.957092%, 43.717957%)" offset="0.234375"/><stop stop-opacity="1" stop-color="rgb(40.98053%, 41.764832%, 43.528748%)" offset="0.246094"/><stop stop-opacity="1" stop-color="rgb(40.596008%, 41.386414%, 43.34259%)" offset="0.257812"/><stop stop-opacity="1" stop-color="rgb(40.386963%, 41.177368%, 43.138123%)" offset="0.265625"/><stop stop-opacity="1" stop-color="rgb(40.177917%, 40.968323%, 42.927551%)" offset="0.273438"/><stop stop-opacity="1" stop-color="rgb(39.797974%, 40.583801%, 42.54303%)" offset="0.28125"/><stop stop-opacity="1" stop-color="rgb(39.520264%, 40.301514%, 42.260742%)" offset="0.300781"/><stop stop-opacity="1" stop-color="rgb(39.326477%, 40.106201%, 42.06543%)" offset="0.308594"/><stop stop-opacity="1" stop-color="rgb(39.112854%, 39.89563%, 41.856384%)" offset="0.316406"/><stop stop-opacity="1" stop-color="rgb(38.912964%, 39.602661%, 41.563416%)" offset="0.324219"/><stop stop-opacity="1" stop-color="rgb(38.725281%, 39.315796%, 41.275024%)" offset="0.332031"/><stop stop-opacity="1" stop-color="rgb(38.441467%, 39.219666%, 41.087341%)" offset="0.339844"/><stop stop-opacity="1" stop-color="rgb(38.143921%, 39.120483%, 40.887451%)" offset="0.347656"/><stop stop-opacity="1" stop-color="rgb(37.934875%, 38.920593%, 40.673828%)" offset="0.355469"/><stop stop-opacity="1" stop-color="rgb(37.739563%, 38.719177%, 40.379333%)" offset="0.363281"/><stop stop-opacity="1" stop-color="rgb(37.649536%, 38.42926%, 40.093994%)" offset="0.371094"/><stop stop-opacity="1" stop-color="rgb(37.556458%, 38.137817%, 39.907837%)" offset="0.378906"/><stop stop-opacity="1" stop-color="rgb(37.365723%, 38.038635%, 39.72168%)" offset="0.386719"/><stop stop-opacity="1" stop-color="rgb(37.159729%, 37.939453%, 39.61792%)" offset="0.390625"/><stop stop-opacity="1" stop-color="rgb(36.955261%, 37.745667%, 39.503479%)" offset="0.394531"/><stop stop-opacity="1" stop-color="rgb(36.756897%, 37.545776%, 39.308167%)" offset="0.402344"/><stop stop-opacity="1" stop-color="rgb(36.561584%, 37.24823%, 39.120483%)" offset="0.410156"/><stop stop-opacity="1" stop-color="rgb(36.273193%, 36.956787%, 38.832092%)" offset="0.417969"/><stop stop-opacity="1" stop-color="rgb(36.079407%, 36.859131%, 38.548279%)" offset="0.433594"/><stop stop-opacity="1" stop-color="rgb(35.984802%, 36.764526%, 38.346863%)" offset="0.4375"/><stop stop-opacity="1" stop-color="rgb(35.78949%, 36.569214%, 38.139343%)" offset="0.441406"/><stop stop-opacity="1" stop-color="rgb(35.588074%, 36.37085%, 37.940979%)" offset="0.449219"/><stop stop-opacity="1" stop-color="rgb(35.298157%, 36.087036%, 37.654114%)" offset="0.457031"/><stop stop-opacity="1" stop-color="rgb(35.005188%, 35.794067%, 37.358093%)" offset="0.472656"/><stop stop-opacity="1" stop-color="rgb(34.794617%, 35.58197%, 37.14447%)" offset="0.480469"/><stop stop-opacity="1" stop-color="rgb(34.5047%, 35.28595%, 36.854553%)" offset="0.488281"/><stop stop-opacity="1" stop-color="rgb(34.222412%, 35.003662%, 36.572266%)" offset="0.503906"/><stop stop-opacity="1" stop-color="rgb(33.935547%, 34.716797%, 36.473083%)" offset="0.507812"/><stop stop-opacity="1" stop-color="rgb(33.737183%, 34.516907%, 36.273193%)" offset="0.519531"/><stop stop-opacity="1" stop-color="rgb(33.729553%, 34.313965%, 35.884094%)" offset="0.523438"/><stop stop-opacity="1" stop-color="rgb(33.726501%, 34.115601%, 35.688782%)" offset="0.535156"/><stop stop-opacity="1" stop-color="rgb(33.528137%, 33.921814%, 35.688782%)" offset="0.539062"/><stop stop-opacity="1" stop-color="rgb(33.331299%, 33.731079%, 35.494995%)" offset="0.542969"/><stop stop-opacity="1" stop-color="rgb(33.329773%, 33.729553%, 35.295105%)" offset="0.546875"/><stop stop-opacity="1" stop-color="rgb(33.149719%, 33.544922%, 35.108948%)" offset="0.550781"/><stop stop-opacity="1" stop-color="rgb(32.954407%, 33.345032%, 34.915161%)" offset="0.554688"/><stop stop-opacity="1" stop-color="rgb(32.743835%, 33.13446%, 34.70459%)" offset="0.566406"/><stop stop-opacity="1" stop-color="rgb(32.36084%, 32.751465%, 34.509277%)" offset="0.578125"/><stop stop-opacity="1" stop-color="rgb(31.988525%, 32.556152%, 34.313965%)" offset="0.589844"/><stop stop-opacity="1" stop-color="rgb(31.781006%, 32.35321%, 33.92334%)" offset="0.601562"/><stop stop-opacity="1" stop-color="rgb(31.759644%, 32.159424%, 33.729553%)" offset="0.605469"/><stop stop-opacity="1" stop-color="rgb(31.759644%, 32.144165%, 33.714294%)" offset="0.609375"/><stop stop-opacity="1" stop-color="rgb(31.564331%, 31.944275%, 33.514404%)" offset="0.613281"/><stop stop-opacity="1" stop-color="rgb(31.173706%, 31.570435%, 33.140564%)" offset="0.625"/><stop stop-opacity="1" stop-color="rgb(30.979919%, 31.375122%, 32.945251%)" offset="0.636719"/><stop stop-opacity="1" stop-color="rgb(30.883789%, 31.272888%, 32.843018%)" offset="0.644531"/><stop stop-opacity="1" stop-color="rgb(30.688477%, 31.079102%, 32.640076%)" offset="0.648438"/><stop stop-opacity="1" stop-color="rgb(30.584717%, 30.975342%, 32.345581%)" offset="0.652344"/><stop stop-opacity="1" stop-color="rgb(30.39093%, 30.781555%, 32.159424%)" offset="0.660156"/><stop stop-opacity="1" stop-color="rgb(30.198669%, 30.589294%, 31.964111%)" offset="0.667969"/><stop stop-opacity="1" stop-color="rgb(30.198669%, 30.403137%, 31.764221%)" offset="0.675781"/><stop stop-opacity="1" stop-color="rgb(30.097961%, 30.207825%, 31.661987%)" offset="0.683594"/><stop stop-opacity="1" stop-color="rgb(29.888916%, 30.187988%, 31.455994%)" offset="0.6875"/><stop stop-opacity="1" stop-color="rgb(29.594421%, 29.988098%, 31.163025%)" offset="0.691406"/><stop stop-opacity="1" stop-color="rgb(29.222107%, 29.603577%, 30.783081%)" offset="0.707031"/><stop stop-opacity="1" stop-color="rgb(28.927612%, 29.310608%, 30.490112%)" offset="0.722656"/><stop stop-opacity="1" stop-color="rgb(28.72467%, 29.06189%, 30.239868%)" offset="0.726562"/><stop stop-opacity="1" stop-color="rgb(28.62854%, 28.770447%, 29.943848%)" offset="0.734375"/><stop stop-opacity="1" stop-color="rgb(28.433228%, 28.451538%, 29.621887%)" offset="0.75"/><stop stop-opacity="1" stop-color="rgb(28.239441%, 28.257751%, 29.428101%)" offset="0.765625"/><stop stop-opacity="1" stop-color="rgb(28.039551%, 28.216553%, 29.388428%)" offset="0.769531"/><stop stop-opacity="1" stop-color="rgb(27.832031%, 28.016663%, 29.193115%)" offset="0.773438"/><stop stop-opacity="1" stop-color="rgb(27.636719%, 27.644348%, 28.829956%)" offset="0.785156"/><stop stop-opacity="1" stop-color="rgb(27.27356%, 27.27356%, 28.459167%)" offset="0.796875"/><stop stop-opacity="1" stop-color="rgb(26.974487%, 26.974487%, 28.15094%)" offset="0.808594"/><stop stop-opacity="1" stop-color="rgb(26.759338%, 26.759338%, 27.931213%)" offset="0.820312"/><stop stop-opacity="1" stop-color="rgb(26.570129%, 26.570129%, 27.74353%)" offset="0.828125"/><stop stop-opacity="1" stop-color="rgb(26.370239%, 26.278687%, 27.548218%)" offset="0.835938"/><stop stop-opacity="1" stop-color="rgb(26.170349%, 25.982666%, 27.349854%)" offset="0.84375"/><stop stop-opacity="1" stop-color="rgb(25.975037%, 25.878906%, 27.154541%)" offset="0.851562"/><stop stop-opacity="1" stop-color="rgb(25.683594%, 25.683594%, 26.864624%)" offset="0.859375"/><stop stop-opacity="1" stop-color="rgb(25.489807%, 25.30365%, 26.478577%)" offset="0.875"/><stop stop-opacity="1" stop-color="rgb(25.294495%, 25.108337%, 26.278687%)" offset="0.882812"/><stop stop-opacity="1" stop-color="rgb(25.099182%, 25.07782%, 26.074219%)" offset="0.894531"/><stop stop-opacity="1" stop-color="rgb(24.90387%, 24.87793%, 25.683594%)" offset="0.898438"/><stop stop-opacity="1" stop-color="rgb(24.708557%, 24.505615%, 25.489807%)" offset="0.910156"/><stop stop-opacity="1" stop-color="rgb(24.513245%, 24.308777%, 25.299072%)" offset="0.917969"/><stop stop-opacity="1" stop-color="rgb(24.313354%, 24.308777%, 25.10376%)" offset="0.925781"/><stop stop-opacity="1" stop-color="rgb(24.113464%, 24.113464%, 24.90387%)" offset="0.933594"/><stop stop-opacity="1" stop-color="rgb(23.919678%, 23.904419%, 24.708557%)" offset="0.941406"/><stop stop-opacity="1" stop-color="rgb(23.919678%, 23.709106%, 24.697876%)" offset="0.945312"/><stop stop-opacity="1" stop-color="rgb(23.823547%, 23.432922%, 24.497986%)" offset="0.949219"/><stop stop-opacity="1" stop-color="rgb(23.628235%, 23.23761%, 24.217224%)" offset="0.960938"/><stop stop-opacity="1" stop-color="rgb(23.355103%, 23.139954%, 24.021912%)" offset="0.96875"/><stop stop-opacity="1" stop-color="rgb(23.15979%, 22.944641%, 23.724365%)" offset="0.976562"/><stop stop-opacity="1" stop-color="rgb(22.944641%, 22.749329%, 23.529053%)" offset="0.988281"/><stop stop-opacity="1" stop-color="rgb(22.749329%, 22.749329%, 23.529053%)" offset="1"/></radialGradient></defs><g transform="matrix(1, 0, 0, 1, 140, 86)"><g clip-path="url(#0dea4054b1)"><g clip-path="url(#bb170e7f7a)"><g fill="#ffffff" fill-opacity="1"><g transform="translate(0.660825, 11.130873)"><g><path d="M 5 0 L 4.5 -1.609375 L 2.03125 -1.609375 L 1.546875 0 L 0 0 L 2.390625 -6.796875 L 4.140625 -6.796875 L 6.546875 0 Z M 4.15625 -2.8125 C 3.707031 -4.269531 3.453125 -5.09375 3.390625 -5.28125 C 3.335938 -5.476562 3.300781 -5.632812 3.28125 -5.75 C 3.175781 -5.351562 2.882812 -4.375 2.40625 -2.8125 Z M 4.15625 -2.8125 "/></g></g></g></g><g fill="#ffffff" fill-opacity="1"><g transform="translate(7.206908, 11.130873)"><g><path d="M 0.328125 2.28125 C -0.0351562 2.28125 -0.347656 2.238281 -0.609375 2.15625 L -0.609375 1.046875 C -0.390625 1.109375 -0.164062 1.140625 0.0625 1.140625 C 0.289062 1.140625 0.457031 1.070312 0.5625 0.9375 C 0.675781 0.800781 0.734375 0.609375 0.734375 0.359375 L 0.734375 -5.171875 L 2.15625 -5.171875 L 2.15625 0.5625 C 2.15625 1.113281 1.992188 1.535156 1.671875 1.828125 C 1.359375 2.128906 0.910156 2.28125 0.328125 2.28125 Z M 0.6875 -6.515625 C 0.6875 -6.972656 0.941406 -7.203125 1.453125 -7.203125 C 1.960938 -7.203125 2.21875 -6.972656 2.21875 -6.515625 C 2.21875 -6.296875 2.148438 -6.125 2.015625 -6 C 1.890625 -5.882812 1.703125 -5.828125 1.453125 -5.828125 C 0.941406 -5.828125 0.6875 -6.054688 0.6875 -6.515625 Z M 0.6875 -6.515625 "/></g></g></g><g fill="#ffffff" fill-opacity="1"><g transform="translate(10.10238, 11.130873)"><g><path d="M 1.859375 -2.59375 C 1.859375 -2.082031 1.941406 -1.695312 2.109375 -1.4375 C 2.285156 -1.175781 2.5625 -1.046875 2.9375 -1.046875 C 3.3125 -1.046875 3.582031 -1.175781 3.75 -1.4375 C 3.914062 -1.695312 4 -2.082031 4 -2.59375 C 4 -3.101562 3.914062 -3.488281 3.75 -3.75 C 3.582031 -4.007812 3.3125 -4.140625 2.9375 -4.140625 C 2.550781 -4.140625 2.273438 -4.007812 2.109375 -3.75 C 1.941406 -3.5 1.859375 -3.113281 1.859375 -2.59375 Z M 5.453125 -2.59375 C 5.453125 -1.75 5.226562 -1.085938 4.78125 -0.609375 C 4.332031 -0.140625 3.710938 0.09375 2.921875 0.09375 C 2.421875 0.09375 1.976562 -0.015625 1.59375 -0.234375 C 1.21875 -0.453125 0.925781 -0.765625 0.71875 -1.171875 C 0.519531 -1.578125 0.421875 -2.050781 0.421875 -2.59375 C 0.421875 -3.4375 0.640625 -4.09375 1.078125 -4.5625 C 1.523438 -5.039062 2.148438 -5.28125 2.953125 -5.28125 C 3.453125 -5.28125 3.890625 -5.171875 4.265625 -4.953125 C 4.640625 -4.734375 4.929688 -4.421875 5.140625 -4.015625 C 5.347656 -3.609375 5.453125 -3.132812 5.453125 -2.59375 Z M 5.453125 -2.59375 "/></g></g></g><g fill="#ffffff" fill-opacity="1"><g transform="translate(15.976712, 11.130873)"><g><path d="M 4.40625 0 L 4.21875 -0.65625 L 4.140625 -0.65625 C 3.992188 -0.414062 3.78125 -0.226562 3.5 -0.09375 C 3.21875 0.03125 2.898438 0.09375 2.546875 0.09375 C 1.941406 0.09375 1.484375 -0.0664062 1.171875 -0.390625 C 0.867188 -0.722656 0.71875 -1.191406 0.71875 -1.796875 L 0.71875 -5.171875 L 2.125 -5.171875 L 2.125 -2.15625 C 2.125 -1.78125 2.191406 -1.5 2.328125 -1.3125 C 2.460938 -1.125 2.671875 -1.03125 2.953125 -1.03125 C 3.347656 -1.03125 3.632812 -1.160156 3.8125 -1.421875 C 3.988281 -1.691406 4.078125 -2.128906 4.078125 -2.734375 L 4.078125 -5.171875 L 5.5 -5.171875 L 5.5 0 Z M 4.40625 0 "/></g></g></g><g fill="#ffffff" fill-opacity="1"><g transform="translate(22.212398, 11.130873)"><g><path d="M 2.921875 -1.03125 C 3.171875 -1.03125 3.46875 -1.082031 3.8125 -1.1875 L 3.8125 -0.140625 C 3.457031 0.015625 3.023438 0.09375 2.515625 0.09375 C 1.953125 0.09375 1.539062 -0.046875 1.28125 -0.328125 C 1.019531 -0.617188 0.890625 -1.050781 0.890625 -1.625 L 0.890625 -4.109375 L 0.21875 -4.109375 L 0.21875 -4.71875 L 1 -5.1875 L 1.40625 -6.28125 L 2.3125 -6.28125 L 2.3125 -5.171875 L 3.75 -5.171875 L 3.75 -4.109375 L 2.3125 -4.109375 L 2.3125 -1.625 C 2.3125 -1.414062 2.363281 -1.265625 2.46875 -1.171875 C 2.582031 -1.078125 2.734375 -1.03125 2.921875 -1.03125 Z M 2.921875 -1.03125 "/></g></g></g><g fill="#ffffff" fill-opacity="1"><g transform="translate(26.330918, 11.130873)"><g><path d="M 2.890625 -4.265625 C 2.585938 -4.265625 2.347656 -4.171875 2.171875 -3.984375 C 2.003906 -3.796875 1.910156 -3.523438 1.890625 -3.171875 L 3.875 -3.171875 C 3.863281 -3.523438 3.769531 -3.796875 3.59375 -3.984375 C 3.414062 -4.171875 3.179688 -4.265625 2.890625 -4.265625 Z M 3.078125 0.09375 C 2.242188 0.09375 1.59375 -0.132812 1.125 -0.59375 C 0.65625 -1.050781 0.421875 -1.703125 0.421875 -2.546875 C 0.421875 -3.421875 0.640625 -4.09375 1.078125 -4.5625 C 1.515625 -5.039062 2.113281 -5.28125 2.875 -5.28125 C 3.601562 -5.28125 4.171875 -5.070312 4.578125 -4.65625 C 4.992188 -4.238281 5.203125 -3.660156 5.203125 -2.921875 L 5.203125 -2.234375 L 1.859375 -2.234375 C 1.867188 -1.835938 1.984375 -1.523438 2.203125 -1.296875 C 2.429688 -1.066406 2.75 -0.953125 3.15625 -0.953125 C 3.457031 -0.953125 3.75 -0.984375 4.03125 -1.046875 C 4.3125 -1.117188 4.601562 -1.222656 4.90625 -1.359375 L 4.90625 -0.265625 C 4.65625 -0.148438 4.390625 -0.0625 4.109375 0 C 3.828125 0.0625 3.484375 0.09375 3.078125 0.09375 Z M 3.078125 0.09375 "/></g></g></g><g fill="#ffffff" fill-opacity="1"><g transform="translate(31.93655, 11.130873)"><g><path d="M 3.625 -5.28125 C 3.820312 -5.28125 3.984375 -5.265625 4.109375 -5.234375 L 4 -3.90625 C 3.882812 -3.9375 3.742188 -3.953125 3.578125 -3.953125 C 3.128906 -3.953125 2.78125 -3.835938 2.53125 -3.609375 C 2.28125 -3.378906 2.15625 -3.054688 2.15625 -2.640625 L 2.15625 0 L 0.734375 0 L 0.734375 -5.171875 L 1.8125 -5.171875 L 2.015625 -4.3125 L 2.09375 -4.3125 C 2.25 -4.601562 2.460938 -4.835938 2.734375 -5.015625 C 3.015625 -5.191406 3.3125 -5.28125 3.625 -5.28125 Z M 3.625 -5.28125 "/></g></g></g><g fill="#ffffff" fill-opacity="1"><g transform="translate(36.245011, 11.130873)"><g/></g></g><g fill="#ffffff" fill-opacity="1"><g transform="translate(38.709636, 11.130873)"><g><path d="M 4.40625 0 L 4.21875 -0.65625 L 4.140625 -0.65625 C 3.992188 -0.414062 3.78125 -0.226562 3.5 -0.09375 C 3.21875 0.03125 2.898438 0.09375 2.546875 0.09375 C 1.941406 0.09375 1.484375 -0.0664062 1.171875 -0.390625 C 0.867188 -0.722656 0.71875 -1.191406 0.71875 -1.796875 L 0.71875 -5.171875 L 2.125 -5.171875 L 2.125 -2.15625 C 2.125 -1.78125 2.191406 -1.5 2.328125 -1.3125 C 2.460938 -1.125 2.671875 -1.03125 2.953125 -1.03125 C 3.347656 -1.03125 3.632812 -1.160156 3.8125 -1.421875 C 3.988281 -1.691406 4.078125 -2.128906 4.078125 -2.734375 L 4.078125 -5.171875 L 5.5 -5.171875 L 5.5 0 Z M 4.40625 0 "/></g></g></g><g fill="#ffffff" fill-opacity="1"><g transform="translate(44.945322, 11.130873)"><g><path d="M 5.515625 0 L 4.109375 0 L 4.109375 -3.03125 C 4.109375 -3.394531 4.039062 -3.671875 3.90625 -3.859375 C 3.769531 -4.046875 3.5625 -4.140625 3.28125 -4.140625 C 2.882812 -4.140625 2.597656 -4.007812 2.421875 -3.75 C 2.242188 -3.488281 2.15625 -3.050781 2.15625 -2.4375 L 2.15625 0 L 0.734375 0 L 0.734375 -5.171875 L 1.8125 -5.171875 L 2.015625 -4.515625 L 2.09375 -4.515625 C 2.25 -4.765625 2.460938 -4.953125 2.734375 -5.078125 C 3.015625 -5.210938 3.332031 -5.28125 3.6875 -5.28125 C 4.28125 -5.28125 4.734375 -5.113281 5.046875 -4.78125 C 5.359375 -4.457031 5.515625 -3.988281 5.515625 -3.375 Z M 5.515625 0 "/></g></g></g><g fill="#ffffff" fill-opacity="1"><g transform="translate(51.181009, 11.130873)"><g/></g></g><g fill="#ffffff" fill-opacity="1"><g transform="translate(53.645634, 11.130873)"><g><path d="M 2.921875 -1.03125 C 3.171875 -1.03125 3.46875 -1.082031 3.8125 -1.1875 L 3.8125 -0.140625 C 3.457031 0.015625 3.023438 0.09375 2.515625 0.09375 C 1.953125 0.09375 1.539062 -0.046875 1.28125 -0.328125 C 1.019531 -0.617188 0.890625 -1.050781 0.890625 -1.625 L 0.890625 -4.109375 L 0.21875 -4.109375 L 0.21875 -4.71875 L 1 -5.1875 L 1.40625 -6.28125 L 2.3125 -6.28125 L 2.3125 -5.171875 L 3.75 -5.171875 L 3.75 -4.109375 L 2.3125 -4.109375 L 2.3125 -1.625 C 2.3125 -1.414062 2.363281 -1.265625 2.46875 -1.171875 C 2.582031 -1.078125 2.734375 -1.03125 2.921875 -1.03125 Z M 2.921875 -1.03125 "/></g></g></g><g fill="#ffffff" fill-opacity="1"><g transform="translate(57.76415, 11.130873)"><g><path d="M 0.6875 -6.515625 C 0.6875 -6.972656 0.941406 -7.203125 1.453125 -7.203125 C 1.960938 -7.203125 2.21875 -6.972656 2.21875 -6.515625 C 2.21875 -6.296875 2.148438 -6.125 2.015625 -6 C 1.890625 -5.882812 1.703125 -5.828125 1.453125 -5.828125 C 0.941406 -5.828125 0.6875 -6.054688 0.6875 -6.515625 Z M 2.15625 0 L 0.734375 0 L 0.734375 -5.171875 L 2.15625 -5.171875 Z M 2.15625 0 "/></g></g></g><g fill="#ffffff" fill-opacity="1"><g transform="translate(60.659625, 11.130873)"><g><path d="M 2.921875 -1.03125 C 3.171875 -1.03125 3.46875 -1.082031 3.8125 -1.1875 L 3.8125 -0.140625 C 3.457031 0.015625 3.023438 0.09375 2.515625 0.09375 C 1.953125 0.09375 1.539062 -0.046875 1.28125 -0.328125 C 1.019531 -0.617188 0.890625 -1.050781 0.890625 -1.625 L 0.890625 -4.109375 L 0.21875 -4.109375 L 0.21875 -4.71875 L 1 -5.1875 L 1.40625 -6.28125 L 2.3125 -6.28125 L 2.3125 -5.171875 L 3.75 -5.171875 L 3.75 -4.109375 L 2.3125 -4.109375 L 2.3125 -1.625 C 2.3125 -1.414062 2.363281 -1.265625 2.46875 -1.171875 C 2.582031 -1.078125 2.734375 -1.03125 2.921875 -1.03125 Z M 2.921875 -1.03125 "/></g></g></g><g fill="#ffffff" fill-opacity="1"><g transform="translate(64.778148, 11.130873)"><g><path d="M 3.625 -5.28125 C 3.820312 -5.28125 3.984375 -5.265625 4.109375 -5.234375 L 4 -3.90625 C 3.882812 -3.9375 3.742188 -3.953125 3.578125 -3.953125 C 3.128906 -3.953125 2.78125 -3.835938 2.53125 -3.609375 C 2.28125 -3.378906 2.15625 -3.054688 2.15625 -2.640625 L 2.15625 0 L 0.734375 0 L 0.734375 -5.171875 L 1.8125 -5.171875 L 2.015625 -4.3125 L 2.09375 -4.3125 C 2.25 -4.601562 2.460938 -4.835938 2.734375 -5.015625 C 3.015625 -5.191406 3.3125 -5.28125 3.625 -5.28125 Z M 3.625 -5.28125 "/></g></g></g><g fill="#ffffff" fill-opacity="1"><g transform="translate(69.086606, 11.130873)"><g><path d="M 2.890625 -4.265625 C 2.585938 -4.265625 2.347656 -4.171875 2.171875 -3.984375 C 2.003906 -3.796875 1.910156 -3.523438 1.890625 -3.171875 L 3.875 -3.171875 C 3.863281 -3.523438 3.769531 -3.796875 3.59375 -3.984375 C 3.414062 -4.171875 3.179688 -4.265625 2.890625 -4.265625 Z M 3.078125 0.09375 C 2.242188 0.09375 1.59375 -0.132812 1.125 -0.59375 C 0.65625 -1.050781 0.421875 -1.703125 0.421875 -2.546875 C 0.421875 -3.421875 0.640625 -4.09375 1.078125 -4.5625 C 1.515625 -5.039062 2.113281 -5.28125 2.875 -5.28125 C 3.601562 -5.28125 4.171875 -5.070312 4.578125 -4.65625 C 4.992188 -4.238281 5.203125 -3.660156 5.203125 -2.921875 L 5.203125 -2.234375 L 1.859375 -2.234375 C 1.867188 -1.835938 1.984375 -1.523438 2.203125 -1.296875 C 2.429688 -1.066406 2.75 -0.953125 3.15625 -0.953125 C 3.457031 -0.953125 3.75 -0.984375 4.03125 -1.046875 C 4.3125 -1.117188 4.601562 -1.222656 4.90625 -1.359375 L 4.90625 -0.265625 C 4.65625 -0.148438 4.390625 -0.0625 4.109375 0 C 3.828125 0.0625 3.484375 0.09375 3.078125 0.09375 Z M 3.078125 0.09375 "/></g></g></g></g></g><path fill="#1f66ff" d="M 169.84375 147.089844 L 213.378906 172.226562 C 229.394531 181.472656 229.394531 204.585938 213.378906 213.832031 L 169.84375 238.96875 C 153.828125 248.214844 133.8125 236.65625 133.8125 218.164062 L 133.8125 167.894531 C 133.8125 149.402344 153.828125 137.84375 169.84375 147.089844 " fill-opacity="1" fill-rule="nonzero"/><g clip-path="url(#51feba4ee2)"><g clip-path="url(#3e0171bc53)"><g clip-path="url(#52f0657a4f)"><path fill="url(#f5fb94e5b0)" d="M 31.832031 25.765625 L 31.832031 349.015625 L 343.082031 349.015625 L 343.082031 25.765625 Z M 31.832031 25.765625 " fill-rule="nonzero"/></g></g></g></svg>